<?xml version="1.0" standalone="no"?>
<!DOCTYPE svg PUBLIC "-//W3C//DTD SVG 20010904//EN"
 "http://www.w3.org/TR/2001/REC-SVG-20010904/DTD/svg10.dtd">
<svg version="1.0" xmlns="http://www.w3.org/2000/svg"
 width="1280.000000pt" height="1280.000000pt" viewBox="0 0 1280.000000 1280.000000"
 preserveAspectRatio="xMidYMid meet">
<metadata>
Created by potrace 1.11, written by Peter Selinger 2001-2013
</metadata>
<g transform="translate(0.000000,1280.000000) scale(0.100000,-0.100000)"
fill="#000000" stroke="none">
<path d="M10058 9565 c-2 -2 -15 -6 -28 -8 -14 -3 -32 -8 -40 -11 -9 -4 -36
-8 -60 -10 -25 -3 -56 -7 -70 -11 -14 -4 -36 -9 -50 -12 -14 -3 -29 -9 -35
-13 -5 -5 -28 -12 -50 -16 -22 -4 -43 -11 -46 -16 -3 -5 -14 -10 -25 -12 -39
-8 -295 -152 -355 -200 -15 -12 -39 -30 -54 -41 -36 -25 -145 -112 -165 -131
-8 -8 -36 -34 -62 -59 -31 -28 -56 -43 -70 -42 -13 1 -50 -3 -83 -7 -33 -5
-71 -10 -85 -11 -14 -1 -35 -5 -46 -8 -28 -7 -264 -184 -264 -198 0 -6 9 -13
20 -16 11 -3 20 -9 20 -12 0 -4 6 -8 13 -8 6 0 51 -19 99 -42 48 -22 91 -41
96 -41 5 0 31 -29 59 -63 47 -59 51 -69 57 -133 4 -38 9 -78 13 -89 7 -23 10
-47 12 -92 1 -37 13 -41 46 -15 12 9 33 24 45 32 12 8 52 39 89 67 36 29 69
53 73 53 6 0 26 39 48 95 28 72 74 157 88 163 10 3 38 21 64 39 26 18 52 33
56 33 5 0 17 9 27 20 10 11 22 20 27 20 13 0 146 103 204 158 13 13 24 20 24
17 0 -7 179 174 217 221 49 60 93 123 93 133 0 5 6 16 13 23 12 13 117 218
117 229 0 8 -26 19 -32 14z m-55 -122 c-25 -49 -47 -89 -48 -91 -1 -1 -15 17
-30 40 -16 24 -39 55 -52 69 -15 16 -19 26 -11 26 7 0 27 4 43 8 41 9 70 15
101 19 14 3 28 7 32 10 14 15 8 0 -35 -81z m-226 -69 c26 -36 61 -81 77 -100
l28 -34 -25 -33 c-90 -119 -316 -319 -475 -422 -9 -5 -21 -13 -26 -18 -89 -64
-267 -156 -366 -190 -82 -27 -150 -40 -150 -28 0 4 -16 27 -37 50 -35 42 -36
44 -23 79 23 66 93 154 222 281 114 112 145 141 153 141 3 0 39 26 79 58 110
84 160 120 192 138 16 8 43 24 59 34 58 36 105 60 105 52 0 -4 4 -2 8 4 8 13
89 50 114 51 10 1 36 -24 65 -63z m-848 -436 c-49 -41 -134 -155 -174 -235
-17 -32 -32 -36 -59 -14 -9 7 -16 11 -16 8 0 -4 -21 5 -46 18 -26 14 -53 25
-60 25 -8 0 -14 5 -14 10 0 6 -3 9 -7 9 -34 -6 -25 8 37 54 40 28 88 65 106
81 19 15 49 30 67 32 105 11 152 17 156 20 2 2 9 4 15 4 5 0 3 -6 -5 -12z
m239 -355 c-7 -16 -20 -41 -29 -58 -8 -16 -19 -42 -22 -56 -4 -17 -40 -50
-111 -103 -58 -42 -109 -78 -113 -79 -9 -2 -28 113 -28 172 l0 44 68 17 c37 9
67 15 67 12 0 -2 7 1 16 9 9 7 39 21 67 31 29 10 54 23 55 28 2 6 12 10 23 10
17 0 17 -3 7 -27z"/>
<path d="M9544 9283 c-11 -2 -35 -17 -53 -34 -28 -25 -34 -38 -37 -80 -3 -46
0 -54 31 -85 29 -29 41 -34 81 -34 38 0 51 5 74 30 33 35 43 75 29 121 -9 32
-46 69 -72 73 -7 1 -16 4 -22 7 -5 3 -19 3 -31 2z"/>
<path d="M9257 9074 c-20 -13 -40 -38 -46 -56 -10 -31 -8 -45 15 -111 4 -9 17
-20 30 -23 13 -3 24 -9 24 -14 0 -13 62 -9 90 5 57 29 75 95 45 159 -30 62
-100 80 -158 40z"/>
<path d="M8534 8555 c-20 -19 -41 -35 -45 -35 -5 0 -9 -5 -9 -10 0 -6 -14 -23
-31 -38 -110 -97 -549 -553 -549 -570 0 -4 -12 -21 -27 -37 -16 -16 -28 -32
-28 -35 0 -3 -14 -19 -30 -36 -45 -46 -64 -72 -58 -78 4 -3 2 -6 -4 -6 -6 0
-24 -19 -40 -42 -15 -24 -62 -88 -103 -143 -87 -116 -136 -188 -157 -230 -9
-16 -22 -34 -29 -38 -8 -4 -14 -14 -14 -22 0 -7 -11 -26 -24 -42 -14 -16 -28
-41 -31 -56 -4 -15 -11 -27 -17 -27 -5 0 -6 -4 -3 -10 3 -5 1 -10 -5 -10 -5 0
-25 -30 -43 -67 -17 -38 -35 -70 -38 -73 -4 -3 -10 -16 -14 -30 -4 -14 -11
-27 -14 -30 -4 -3 -15 -24 -25 -47 -11 -24 -24 -43 -29 -43 -6 0 -7 -3 -4 -6
4 -4 -7 -32 -24 -63 -17 -31 -33 -64 -35 -75 -2 -10 -10 -26 -19 -36 -8 -9
-15 -22 -15 -28 0 -7 -5 -12 -12 -12 -6 0 -9 -3 -6 -6 6 -5 -3 -30 -39 -112
-9 -20 -17 -39 -17 -42 -1 -7 -30 -75 -61 -145 -12 -27 -33 -85 -46 -127 -13
-43 -27 -78 -31 -78 -5 0 -8 -8 -8 -17 0 -25 -33 -117 -45 -125 -5 -4 -6 -10
-3 -14 4 -3 0 -23 -8 -43 -15 -35 -18 -46 -29 -92 -2 -12 -18 -83 -36 -158
-17 -75 -32 -152 -34 -171 -2 -19 -6 -46 -10 -60 -7 -28 -13 -54 -19 -85 -2
-11 -9 -39 -15 -63 -7 -24 -14 -69 -16 -100 -3 -31 -7 -68 -11 -82 -3 -14 -7
-56 -10 -95 -2 -38 -7 -86 -10 -105 -11 -62 -15 -188 -16 -512 l0 -316 23 -26
c35 -36 78 -38 112 -2 15 15 27 37 27 47 0 10 5 19 10 19 7 0 7 7 2 18 -15 32
-4 735 13 762 2 3 5 40 6 81 1 41 4 79 8 84 3 6 6 21 7 35 0 14 3 41 7 60 3
19 11 70 18 113 6 42 15 77 18 77 3 0 7 10 8 23 0 12 4 36 7 52 4 17 8 44 10
60 5 30 11 62 20 100 2 11 14 65 26 120 12 55 28 115 36 134 8 18 14 40 14 48
0 8 11 39 25 69 14 30 25 62 25 72 0 9 11 40 23 67 13 28 26 64 30 81 3 17 20
61 36 98 17 37 31 69 31 72 0 2 7 20 15 40 8 19 14 35 13 37 0 1 9 20 21 42
11 22 21 47 21 57 0 9 6 23 13 30 14 15 147 282 147 297 0 5 3 11 8 13 4 2 22
33 40 70 18 37 37 70 42 73 6 4 19 28 31 55 12 27 28 55 36 61 8 7 20 27 28
46 8 18 19 33 24 33 6 0 11 6 11 13 0 7 10 27 23 44 24 34 28 40 88 130 23 35
52 74 65 88 13 15 24 28 24 31 0 7 63 91 95 128 6 6 23 29 39 51 16 22 34 45
40 50 7 6 32 37 58 70 62 82 88 111 198 225 52 54 127 132 165 174 39 41 76
75 83 76 6 0 12 7 12 15 0 8 4 15 9 15 5 0 48 38 96 85 49 47 91 85 95 85 18
0 17 42 -1 58 -10 9 -19 22 -19 29 0 7 -3 13 -7 13 -5 0 -16 14 -25 30 -22 39
-38 38 -84 -5z"/>
<path d="M4942 7763 c-19 -9 -38 -27 -43 -41 -12 -32 -12 -3573 0 -3605 10
-25 65 -57 99 -57 25 0 61 14 87 35 20 16 20 31 25 1612 l5 1597 85 -133 c47
-73 93 -145 102 -159 10 -15 21 -34 24 -42 4 -8 13 -22 20 -31 11 -13 14 -265
16 -1421 l3 -1406 25 -20 c47 -39 110 -40 160 -2 l25 19 3 1233 2 1233 65 -99
c36 -55 65 -100 65 -101 0 -2 31 -49 68 -106 38 -57 90 -138 116 -179 26 -41
74 -115 106 -165 33 -49 64 -99 70 -110 5 -11 40 -65 77 -120 77 -112 94 -122
162 -95 77 30 105 72 74 112 -6 7 -12 18 -14 23 -2 6 -23 39 -46 75 -23 36
-118 184 -211 329 -93 145 -175 271 -181 280 -11 16 -218 339 -306 478 l-45
72 2 166 3 167 60 -94 c129 -203 209 -325 236 -365 16 -23 29 -46 29 -52 0 -6
5 -11 10 -11 6 0 10 -7 10 -15 0 -8 5 -15 10 -15 6 0 10 -4 10 -9 0 -8 142
-233 220 -351 15 -22 72 -110 217 -335 125 -195 129 -200 164 -203 47 -4 125
32 143 66 13 24 11 30 -14 67 -15 22 -29 45 -31 50 -2 6 -31 51 -63 100 -32
50 -84 128 -114 175 -30 47 -89 138 -131 202 -42 65 -80 125 -86 134 -5 9 -37
59 -70 110 -33 51 -100 156 -150 234 -49 77 -110 171 -134 208 -195 301 -321
501 -330 523 -10 27 -64 59 -99 59 -27 0 -70 -17 -86 -33 -25 -25 -28 -56 -26
-247 l1 -195 -63 100 c-35 55 -85 133 -112 173 -26 41 -60 97 -74 124 -38 74
-100 96 -170 61z"/>
<path d="M8072 7763 c-19 -9 -38 -27 -43 -41 -5 -14 -8 -743 -7 -1817 l3
-1793 23 -21 c46 -39 118 -39 164 0 l23 21 3 1793 c1 1081 -2 1803 -7 1818
-10 26 -66 57 -103 57 -12 0 -38 -8 -56 -17z"/>
</g>
</svg>
