<?xml version="1.0" standalone="no"?>
<!DOCTYPE svg PUBLIC "-//W3C//DTD SVG 20010904//EN"
 "http://www.w3.org/TR/2001/REC-SVG-20010904/DTD/svg10.dtd">
<svg version="1.0" xmlns="http://www.w3.org/2000/svg"
 width="138.000000pt" height="138.000000pt" viewBox="0 0 138.000000 138.000000"
 preserveAspectRatio="xMidYMid meet">
<metadata>
Created by potrace 1.11, written by Peter Selinger 2001-2013
</metadata>
<g transform="translate(0.000000,138.000000) scale(0.100000,-0.100000)"
fill="#000000" stroke="none">
<path d="M1258 1194 c-26 -6 -67 -23 -91 -38 -25 -14 -47 -22 -51 -19 -3 3 -6
0 -6 -8 0 -8 -12 -22 -26 -33 -23 -16 -28 -17 -41 -3 -14 13 -13 16 6 22 11 3
21 10 21 15 0 5 -13 1 -30 -8 -16 -9 -30 -21 -30 -25 0 -5 4 -6 8 -3 5 3 23
-9 41 -26 24 -24 29 -34 20 -44 -7 -9 -8 -14 -1 -14 17 0 23 31 10 48 -11 12
-6 20 26 48 77 67 201 103 214 64 4 -13 3 -13 -11 -2 -13 11 -15 10 -10 -6 5
-21 -20 -41 -107 -84 -30 -15 -51 -27 -46 -28 5 0 1 -9 -9 -20 -10 -11 -15
-23 -12 -26 4 -4 14 7 23 23 11 18 35 36 63 48 43 18 151 108 151 126 0 11
-55 8 -112 -7z m92 -4 c0 -5 -4 -10 -10 -10 -5 0 -10 5 -10 10 0 6 5 10 10 10
6 0 10 -4 10 -10z"/>
<path d="M1233 1154 c-8 -20 17 -36 34 -22 10 8 10 14 2 24 -15 18 -28 18 -36
-2z"/>
<path d="M1177 1126 c-9 -22 18 -40 33 -22 6 9 9 20 5 26 -9 15 -32 12 -38 -4z"/>
<path d="M969 1011 c-170 -125 -290 -392 -324 -718 -6 -54 -4 -63 9 -63 11 0
16 10 17 33 1 88 42 284 80 387 59 159 150 286 254 355 30 20 53 41 50 46 -10
15 -16 11 -86 -40z"/>
<path d="M1116 1052 c-3 -5 1 -9 9 -9 8 0 15 4 15 9 0 4 -4 8 -9 8 -6 0 -12
-4 -15 -8z"/>
<path d="M1085 990 c-19 -8 -19 -9 2 -9 12 -1 25 4 28 9 7 12 -2 12 -30 0z"/>
<path d="M364 909 c-8 -14 -8 -665 1 -679 20 -33 25 27 25 318 1 317 1 317 20
293 19 -22 20 -40 20 -317 0 -255 2 -294 15 -294 8 0 15 8 16 18 0 9 0 131 0
270 0 221 2 252 15 242 8 -7 48 -55 90 -106 68 -84 104 -113 104 -85 0 8 -96
129 -120 151 -33 31 -91 114 -88 127 2 12 36 -22 103 -102 96 -114 125 -140
125 -115 0 19 -231 291 -243 287 -6 -2 -14 -14 -17 -28 -6 -24 -6 -24 -18 -3
-14 26 -39 37 -48 23z"/>
<path d="M923 904 c-5 -13 -8 -539 -4 -651 1 -13 7 -23 15 -23 11 0 14 58 14
340 0 309 -6 383 -25 334z"/>
</g>
</svg>
