<svg
	version="1.1"
	id="Layer_2"
	xmlns="http://www.w3.org/2000/svg"
	xmlns:xlink="http://www.w3.org/1999/xlink"
	x="0px"
	y="0px"
	width="1216px"
	height="472px"
	viewBox="0 0 1216 472"
	enable-background="new 0 0 1216 472"
	xml:space="preserve"
>
	<path fill="none" stroke="#54FFF5" stroke-miterlimit="10" d="M390.102,91.596"/>
	<g>
		<linearGradient
			id="SVGID_1_"
			gradientUnits="userSpaceOnUse"
			x1="166.1313"
			y1="212.0259"
			x2="1180.3623"
			y2="212.0259"
		>
			<stop  offset="0.2068" style="stop-color:#76DEFE"/>
			<stop  offset="0.3992" style="stop-color:#FFFFFF"/>
		</linearGradient>
		<path stroke="url(#SVGID_1_)" fill="none" d="M166.131,15.089c0,0,0.266,0.199,0.75,0.638c0.498,0.423,1.211,1.087,2.128,1.988
			c0.932,0.886,2.01,2.065,3.307,3.448c1.231,1.442,2.73,3.054,4.243,5.031c3.167,3.843,6.662,8.9,10.55,14.978
			c0.924,1.55,1.882,3.157,2.875,4.822c0.49,0.835,1.013,1.672,1.501,2.547c0.475,0.882,0.957,1.779,1.446,2.69
			c0.98,1.822,1.991,3.701,3.031,5.637c0.956,1.978,1.939,4.014,2.95,6.105c2.108,4.145,3.905,8.703,5.972,13.402
			c0.526,1.171,0.997,2.381,1.455,3.612c0.468,1.227,0.941,2.468,1.42,3.722c0.938,2.515,1.977,5.057,2.891,7.704
			c3.627,10.594,7.31,22.15,10.379,34.727c0.781,3.141,1.575,6.332,2.381,9.571c0.375,1.639,0.7,3.278,1.055,4.937
			c0.3,1.672,0.603,3.356,0.908,5.053c1.131,6.792,1.99,13.818,2.75,21.038c1.516,14.442,2.628,29.662,3.972,45.52
			c1.335,15.858,2.853,32.368,5.103,49.367c2.236,16.993,5.231,34.495,9.845,52.101c2.322,8.794,5.074,17.606,8.49,26.28
			c3.419,8.666,7.507,17.204,12.571,25.259c0.64,1.002,1.25,2.026,1.917,3.014l2.068,2.921c1.33,1.988,2.89,3.808,4.376,5.69
			c0.726,0.957,1.544,1.837,2.355,2.724l2.428,2.671c0.833,0.87,1.729,1.679,2.591,2.522c0.887,0.817,1.705,1.716,2.651,2.47
			c7.288,6.357,15.771,11.477,25.019,14.851c9.252,3.392,19.215,4.889,29.221,5.06c10.024,0.15,20.129-1.034,30.095-3.123
			c9.961-2.156,19.784-5.176,29.489-8.671c4.802-1.89,9.665-3.659,14.393-5.799c2.373-1.047,4.78-2.021,7.131-3.13
			c2.349-1.114,4.7-2.23,7.054-3.347c18.791-9.03,36.951-19.711,54.703-31.126c4.403-2.912,8.86-5.75,13.23-8.729
			c4.365-2.995,8.733-5.992,13.104-8.991c8.771-5.955,17.552-11.916,26.332-17.877c35.545-23.323,72.391-44.586,109.742-63.404
			c37.345-18.83,75.172-35.205,112.508-49.068c37.333-13.877,74.176-25.24,109.556-34.229c35.375-9.021,69.254-15.785,100.719-20.737
			c31.466-4.971,60.522-8.083,86.331-9.942c25.812-1.865,48.376-2.484,66.95-2.461c18.577,0.021,33.165,0.685,43.092,1.35
			c2.483,0.137,4.671,0.351,6.563,0.486c1.892,0.138,3.48,0.281,4.76,0.416c2.558,0.25,3.878,0.379,3.878,0.379
			s-1.321-0.122-3.881-0.356c-1.278-0.127-2.869-0.261-4.761-0.388c-1.893-0.125-4.081-0.326-6.565-0.448
			c-9.929-0.608-24.517-1.188-43.086-1.102c-18.566,0.084-41.115,0.833-66.896,2.845c-25.778,2.015-54.788,5.294-86.208,10.333
			c-31.415,5.049-65.233,11.916-100.532,21.039c-35.305,9.092-72.045,20.581-109.315,34.443
			c-37.262,13.881-75.01,30.271-112.271,49.108c-37.263,18.821-74.04,40.106-109.462,63.392
			c-8.787,5.951-17.573,11.903-26.351,17.849c-4.375,2.995-8.748,5.989-13.117,8.98c-4.383,2.981-8.856,5.823-13.274,8.737
			c-17.814,11.429-36.045,22.125-54.938,31.181c-2.367,1.119-4.731,2.238-7.093,3.355c-2.364,1.112-4.788,2.09-7.175,3.141
			c-4.756,2.146-9.654,3.923-14.489,5.818c-9.777,3.51-19.685,6.545-29.75,8.712c-10.073,2.101-20.309,3.293-30.496,3.129
			c-10.167-0.184-20.327-1.719-29.78-5.194c-9.45-3.457-18.125-8.706-25.552-15.202c-7.451-6.496-13.533-14.271-18.648-22.421
			c-5.105-8.18-9.205-16.817-12.623-25.564c-3.416-8.754-6.155-17.629-8.459-26.475c-4.579-17.707-7.524-35.269-9.71-52.303
			c-2.2-17.039-3.666-33.571-4.95-49.44c-1.284-15.87-2.376-31.085-3.803-45.515c-0.718-7.213-1.535-14.229-2.623-21.001
			c-0.293-1.687-0.584-3.361-0.873-5.023c-0.344-1.654-0.665-3.314-1.024-4.929c-0.786-3.239-1.561-6.429-2.323-9.568
			c-2.992-12.575-6.603-24.132-10.164-34.732c-0.898-2.647-1.92-5.19-2.843-7.708c-0.471-1.255-0.936-2.497-1.396-3.725
			c-0.451-1.232-0.914-2.443-1.433-3.615c-2.037-4.703-3.806-9.268-5.887-13.417c-0.998-2.095-1.968-4.133-2.912-6.115
			c-1.028-1.938-2.027-3.821-2.995-5.646c-0.484-0.913-0.961-1.812-1.43-2.696c-0.482-0.876-1-1.714-1.485-2.552
			c-0.981-1.668-1.93-3.28-2.844-4.833c-3.849-6.093-7.312-11.167-10.455-15.024c-1.5-1.985-2.989-3.603-4.212-5.052
			c-1.288-1.39-2.359-2.575-3.286-3.466c-0.912-0.906-1.621-1.573-2.116-1.999C166.396,15.29,166.131,15.089,166.131,15.089z"/>
	</g>
	<g>
		<linearGradient
			id="SVGID_2_"
			gradientUnits="userSpaceOnUse"
			x1="35.6377"
			y1="221.9795"
			x2="1141.083"
			y2="221.9795"
		>
			<stop  offset="0.2817" style="stop-color:#FFFFFF"/>
			<stop  offset="0.7207" style="stop-color:#76DEFE"/>
		</linearGradient>
		<path stroke="url(#SVGID_2_)" fill="none" d="M35.638,40.688c0,0,1.358-0.274,4.015-0.657c2.656-0.38,6.611-0.867,11.792-1.24
			c10.342-0.72,25.688-1.092,44.91,1.712c9.59,1.443,20.131,3.718,31.247,7.389c11.104,3.673,22.771,8.803,34.314,15.878
			c11.536,7.063,22.906,16.125,33.237,27.27c10.353,11.119,19.6,24.326,27.25,39.128c3.839,7.395,7.307,15.174,10.41,23.266
			c3.074,8.104,5.733,16.532,8.078,25.197c2.406,8.649,4.179,17.63,5.946,26.703c1.697,9.101,3.763,18.226,6.099,27.447
			c1.146,4.613,2.46,9.213,3.765,13.849c0.701,2.303,1.404,4.613,2.11,6.931c0.696,2.321,1.5,4.615,2.249,6.935
			c3.094,9.244,6.578,18.484,10.54,27.634c7.932,18.278,17.742,36.294,30.266,52.779c6.256,8.234,13.186,16.068,20.833,23.256
			c3.799,3.621,7.854,6.985,12,10.254c2.128,1.562,4.235,3.163,6.419,4.659c2.219,1.443,4.373,2.999,6.679,4.319l3.416,2.055
			c1.156,0.657,2.337,1.271,3.505,1.909c2.319,1.313,4.744,2.427,7.149,3.586c1.192,0.603,2.431,1.104,3.663,1.625l3.697,1.562
			l3.772,1.385c1.26,0.456,2.509,0.949,3.799,1.321c10.209,3.323,20.849,5.474,31.644,6.437c21.631,1.813,43.663-1.14,64.743-7.257
			c10.557-3.053,20.91-6.879,31.026-11.271c10.115-4.397,20.019-9.324,29.636-14.765c19.285-10.799,37.629-23.247,55.107-36.657
			l3.287-2.501l3.233-2.567l6.458-5.135l6.348-5.255c2.117-1.748,4.231-3.496,6.294-5.303l6.225-5.366
			c2.08-1.779,4.089-3.638,6.135-5.45c2.03-1.83,4.084-3.63,6.09-5.479c1.999-1.856,3.997-3.711,5.993-5.563
			c31.67-30.014,64.508-57.902,98.274-82.193c33.695-24.369,68.417-45.044,103.116-60.891
			c34.678-15.841,69.468-26.648,102.456-31.341c8.235-1.224,16.362-1.974,24.315-2.421c3.977-0.255,7.915-0.315,11.805-0.399
			c3.891,0.023,7.734,0.002,11.525,0.201c3.793,0.102,7.527,0.427,11.212,0.689c3.676,0.383,7.307,0.716,10.861,1.25
			c3.567,0.436,7.049,1.102,10.487,1.687c3.418,0.701,6.793,1.347,10.071,2.183c3.302,0.737,6.491,1.693,9.649,2.546
			c3.116,0.995,6.213,1.872,9.177,2.967c5.986,2.024,11.603,4.398,16.94,6.786c10.625,4.906,19.94,10.332,27.955,15.796
			c16.042,10.975,26.857,21.896,33.895,29.497c1.794,1.879,3.249,3.656,4.561,5.139c1.316,1.48,2.356,2.783,3.203,3.824
			c1.693,2.081,2.567,3.155,2.567,3.155s-0.88-1.069-2.585-3.141c-0.852-1.036-1.898-2.333-3.223-3.805
			c-1.32-1.475-2.784-3.243-4.588-5.112c-7.076-7.559-17.945-18.412-34.019-29.278c-8.031-5.411-17.356-10.772-27.979-15.607
			c-5.338-2.351-10.95-4.688-16.929-6.672c-2.961-1.076-6.053-1.933-9.163-2.907c-3.152-0.833-6.336-1.768-9.63-2.485
			c-3.271-0.814-6.638-1.439-10.046-2.119c-3.43-0.563-6.901-1.208-10.458-1.623c-3.544-0.512-7.162-0.824-10.825-1.185
			c-3.673-0.24-7.393-0.544-11.172-0.625c-3.775-0.178-7.604-0.132-11.479-0.147c-3.874,0.096-7.796,0.168-11.757,0.435
			c-7.92,0.471-16.013,1.243-24.213,2.487c-32.847,4.777-67.485,15.653-102.01,31.554c-8.634,3.978-17.291,8.22-25.898,12.813
			c-4.332,2.244-8.604,4.662-12.928,7.042c-2.141,1.229-4.287,2.462-6.439,3.698c-2.153,1.235-4.307,2.482-6.438,3.783
			c-2.139,1.286-4.283,2.576-6.435,3.869c-2.128,1.329-4.262,2.662-6.401,3.998c-4.303,2.634-8.511,5.466-12.801,8.213
			c-8.471,5.665-16.987,11.438-25.369,17.554c-33.672,24.277-66.4,52.127-98.015,82.149c-1.999,1.859-4,3.721-6.002,5.583
			c-2.009,1.856-4.066,3.663-6.1,5.499c-2.049,1.819-4.061,3.685-6.145,5.472l-6.235,5.388c-2.066,1.812-4.186,3.568-6.308,5.323
			l-6.361,5.277l-6.473,5.157l-3.241,2.579l-3.295,2.514c-17.524,13.471-35.926,25.997-55.308,36.865
			c-9.674,5.459-19.642,10.406-29.83,14.823c-10.189,4.41-20.624,8.255-31.273,11.323c-21.264,6.147-43.535,9.117-65.438,7.258
			c-10.93-0.985-21.711-3.175-32.054-6.554c-1.307-0.38-2.572-0.88-3.849-1.343l-3.821-1.408l-3.745-1.587
			c-1.247-0.528-2.502-1.039-3.709-1.65c-2.436-1.177-4.891-2.308-7.239-3.64c-1.183-0.647-2.379-1.271-3.548-1.938l-3.457-2.084
			c-2.333-1.34-4.512-2.915-6.757-4.379c-2.209-1.517-4.339-3.139-6.49-4.721c-4.19-3.311-8.287-6.717-12.122-10.38
			c-7.72-7.27-14.706-15.186-21.005-23.494c-12.602-16.641-22.485-34.771-30.385-53.179c-3.954-9.21-7.425-18.503-10.503-27.795
			c-0.745-2.332-1.545-4.638-2.236-6.97c-0.701-2.329-1.4-4.65-2.096-6.965c-1.295-4.655-2.599-9.277-3.735-13.909
			c-2.312-9.243-4.365-18.453-6.032-27.545c-1.741-9.088-3.473-18.004-5.843-26.632c-2.308-8.633-4.929-17.029-7.962-25.103
			c-3.063-8.06-6.488-15.809-10.284-23.174c-3.797-7.363-7.951-14.352-12.471-20.867c-4.524-6.512-9.38-12.567-14.484-18.13
			c-10.209-11.136-21.468-20.212-32.913-27.306c-11.452-7.105-23.048-12.282-34.1-16.005c-11.063-3.721-21.568-6.049-31.134-7.542
			c-19.175-2.905-34.513-2.618-44.854-1.956c-5.181,0.345-9.137,0.81-11.795,1.175C36.998,40.421,35.638,40.688,35.638,40.688z"/>
	</g>
</svg>
